# Blender v2.78 (sub 0) OBJ File: 'Level_2.blend'
# www.blender.org
mtllib Platform_Level_2.mtl
o Cube.007_Cube.014
v -6.474622 2.810998 3.607733
v -7.967830 2.810997 3.607733
v -6.474623 4.304207 3.607742
v -7.967831 4.304206 3.607740
v -6.474621 2.810991 4.991470
v -7.967830 2.810990 4.991470
v -6.474623 4.304200 4.991479
v -7.967831 4.304199 4.991477
v -6.474625 8.513132 3.607764
v -7.967834 8.513131 3.607761
v -6.474625 8.513124 4.991500
v -7.967834 8.513124 4.991498
v -4.223112 2.811000 3.607732
v -3.781552 4.304209 3.607741
v -4.223111 2.810992 4.991469
v -3.781551 4.304201 4.991478
v -2.802402 2.811000 3.607732
v -2.360842 4.304209 3.607741
v -2.802402 2.810993 4.991469
v -2.360841 4.304202 4.991478
v -0.296401 2.811002 3.607731
v -0.296402 4.304211 3.607740
v -0.296401 2.810995 4.991468
v -0.296402 4.304204 4.991477
v -6.474626 9.651592 3.607769
v -7.967834 9.651591 3.607767
v -6.474626 9.651585 4.991507
v -7.967834 9.651584 4.991505
v -0.204990 8.513128 4.991498
v -0.204991 8.513135 3.607762
v -0.204991 9.651588 4.991505
v -0.204991 9.651595 3.607767
v -6.474627 8.513166 -3.157812
v -7.967836 8.513165 -3.157814
v -6.474628 9.651627 -3.157806
v -7.967836 9.651626 -3.157809
v -3.712861 9.651593 3.607769
v -2.418691 9.651594 3.607768
v -2.418692 8.513134 3.607762
v -3.712861 8.513133 3.607763
v -2.418691 8.513127 4.991499
v -3.712860 8.513126 4.991500
v -2.418692 9.651587 4.991506
v -3.712861 9.651587 4.991506
v -6.474628 8.513173 -4.440606
v -7.967836 8.513172 -4.440608
v -6.474628 9.651633 -4.440599
v -7.967837 9.651632 -4.440602
v -0.197155 9.651630 -3.157808
v -0.190077 8.513169 -3.157814
v -0.197155 9.651637 -4.440601
v -0.190077 8.513176 -4.440608
v -4.329762 9.651628 -3.157807
v -2.680126 9.651628 -3.157807
v -2.680127 9.651635 -4.440600
v -4.329762 9.651634 -4.440600
v -1.388548 8.513176 -4.440607
v -4.329762 8.513174 -4.440606
v -4.329762 8.513168 -3.157813
v -1.388548 8.513169 -3.157813
v -0.190076 5.332263 -4.440623
v -0.190076 5.332256 -3.157829
v -1.388546 5.332255 -3.157828
v -1.388546 5.332262 -4.440622
v -1.388547 6.632702 -3.157822
v -0.190077 6.632703 -3.157823
v -0.190077 6.632710 -4.440617
v -1.388547 6.632709 -4.440616
v -7.967834 8.513144 0.988315
v -7.967835 8.513154 -0.538365
v -6.474627 8.513155 -0.538363
v -6.474626 8.513144 0.988317
v -6.474627 9.651603 0.988320
v -6.474627 9.651615 -0.538360
v -7.967836 9.651614 -0.538361
v -7.967835 9.651603 0.988319
v -7.967832 5.707174 4.991484
v -7.967833 7.110149 4.991491
v -7.967833 7.110156 3.607754
v -7.967832 5.707181 3.607747
v -6.474625 7.110157 3.607757
v -6.474624 5.707182 3.607749
v -6.474624 7.110150 4.991493
v -6.474623 5.707175 4.991486
v -10.501158 5.707174 4.991482
v -10.501158 7.110149 4.991489
v -10.501159 7.110156 3.607753
v -10.501158 5.707181 3.607746
vn 0.0000 -1.0000 -0.0000
vn 0.0000 0.0000 -1.0000
vn -0.0000 -0.0000 1.0000
vn -1.0000 -0.0000 0.0000
vn 1.0000 0.0000 -0.0000
vn -0.0000 1.0000 0.0000
vn 1.0000 0.0062 -0.0000
usemtl Platform_Blue.002
s off
f 2//1 1//1 5//1 6//1
f 2//2 4//2 3//2 1//2
f 5//3 7//3 8//3 6//3
f 79//4 78//4 12//4 10//4
f 4//4 2//4 6//4 8//4
f 5//1 1//1 13//1 15//1
f 10//4 12//4 28//4 26//4
f 81//2 79//2 10//2 9//2
f 83//5 81//5 9//5 11//5
f 78//3 83//3 11//3 12//3
f 1//2 3//2 14//2 13//2
f 3//6 7//6 16//6 14//6
f 7//3 5//3 15//3 16//3
f 19//1 17//1 21//1 23//1
f 16//3 15//3 19//3 20//3
f 15//1 13//1 17//1 19//1
f 13//2 14//2 18//2 17//2
f 21//5 22//5 24//5 23//5
f 17//2 18//2 22//2 21//2
f 18//6 20//6 24//6 22//6
f 20//3 19//3 23//3 24//3
f 14//6 16//6 20//6 18//6
f 25//6 26//6 28//6 27//6
f 71//1 70//1 34//1 33//1
f 39//2 38//2 32//2 30//2
f 12//3 11//3 27//3 28//3
f 29//5 30//5 32//5 31//5
f 41//1 39//1 30//1 29//1
f 43//3 41//3 29//3 31//3
f 38//6 43//6 31//6 32//6
f 34//4 36//4 48//4 46//4
f 75//6 74//6 35//6 36//6
f 70//4 75//4 36//4 34//4
f 74//5 71//5 33//5 35//5
f 25//6 27//6 44//6 37//6
f 27//3 11//3 42//3 44//3
f 11//1 9//1 40//1 42//1
f 9//2 25//2 37//2 40//2
f 45//2 46//2 48//2 47//2
f 33//1 34//1 46//1 45//1
f 55//6 54//6 49//6 51//6
f 36//6 35//6 47//6 48//6
f 49//7 50//7 52//7 51//7
f 57//2 55//2 51//2 52//2
f 54//3 60//3 50//3 49//3
f 33//1 45//1 58//1 59//1
f 59//1 58//1 57//1 60//1
f 35//3 33//3 59//3 53//3
f 53//3 59//3 60//3 54//3
f 45//2 47//2 56//2 58//2
f 58//2 56//2 55//2 57//2
f 47//6 35//6 53//6 56//6
f 56//6 53//6 54//6 55//6
f 52//5 50//5 66//5 67//5
f 60//4 57//4 68//4 65//4
f 57//2 52//2 67//2 68//2
f 50//3 60//3 65//3 66//3
f 25//5 9//5 72//5 73//5
f 10//4 26//4 76//4 69//4
f 26//6 25//6 73//6 76//6
f 9//1 10//1 69//1 72//1
f 8//3 7//3 84//3 77//3
f 77//3 84//3 83//3 78//3
f 7//5 3//5 82//5 84//5
f 84//5 82//5 81//5 83//5
f 3//2 4//2 80//2 82//2
f 82//2 80//2 79//2 81//2
f 4//4 8//4 77//4 80//4
f 79//2 80//2 88//2 87//2
f 88//4 85//4 86//4 87//4
f 80//1 77//1 85//1 88//1
f 77//3 78//3 86//3 85//3
f 78//6 79//6 87//6 86//6
usemtl Rotation_Red.002
f 37//6 44//6 43//6 38//6
f 44//3 42//3 41//3 43//3
f 42//1 40//1 39//1 41//1
f 40//2 37//2 38//2 39//2
f 66//3 65//3 63//3 62//3
f 63//1 64//1 61//1 62//1
f 68//2 67//2 61//2 64//2
f 65//4 68//4 64//4 63//4
f 67//5 66//5 62//5 61//5
f 73//5 72//5 71//5 74//5
f 69//4 76//4 75//4 70//4
f 76//6 73//6 74//6 75//6
f 72//1 69//1 70//1 71//1
